<svg width="100" height="100" viewBox="0 0 100 100" fill="none" xmlns="http://www.w3.org/2000/svg">
<g clip-path="url(#clip0_1_3)">
<path d="M46.3262 76.531C47.7145 73.3071 52.2855 73.3071 53.6738 76.531L57.7128 85.9098C58.2919 87.2545 59.5593 88.1754 61.0172 88.3106L71.1851 89.2537C74.6802 89.5778 76.0927 93.9251 73.4556 96.2417L65.7839 102.981C64.684 103.947 64.1999 105.437 64.5218 106.866L66.7669 116.827C67.5387 120.252 63.8407 122.938 60.8226 121.146L52.0422 115.933C50.7834 115.185 49.2167 115.185 47.9578 115.933L39.1774 121.146C36.1593 122.938 32.4613 120.252 33.2331 116.827L35.4782 106.866C35.8001 105.437 35.316 103.947 34.2161 102.981L26.5443 96.2417C23.9073 93.9251 25.3198 89.5778 28.8149 89.2537L38.9828 88.3106C40.4407 88.1754 41.7081 87.2545 42.2872 85.9098L46.3262 76.531Z" fill="white"/>
<path d="M-3.67381 26.531C-2.28548 23.3071 2.28548 23.3071 3.67382 26.531L7.71277 35.9098C8.29186 37.2545 9.55934 38.1754 11.0172 38.3106L21.1851 39.2537C24.6802 39.5778 26.0927 43.9251 23.4556 46.2417L15.7839 52.9812C14.684 53.9475 14.1999 55.4375 14.5218 56.8657L16.7669 66.8274C17.5387 70.2516 13.8407 72.9384 10.8226 71.1463L2.04224 65.9326C0.78335 65.1851 -0.783348 65.1851 -2.04224 65.9326L-10.8226 71.1463C-13.8407 72.9384 -17.5387 70.2516 -16.7669 66.8274L-14.5218 56.8657C-14.1999 55.4375 -14.684 53.9475 -15.7839 52.9812L-23.4557 46.2417C-26.0927 43.9251 -24.6802 39.5778 -21.1851 39.2537L-11.0172 38.3106C-9.55934 38.1754 -8.29186 37.2545 -7.71277 35.9098L-3.67381 26.531Z" fill="white"/>
<path d="M46.3262 -23.469C47.7145 -26.6929 52.2855 -26.6929 53.6738 -23.469L57.7128 -14.0902C58.2919 -12.7455 59.5593 -11.8246 61.0172 -11.6894L71.1851 -10.7463C74.6802 -10.4222 76.0927 -6.07493 73.4556 -3.75832L65.7839 2.98117C64.684 3.94746 64.1999 5.43747 64.5218 6.86574L66.7669 16.8274C67.5387 20.2516 63.8407 22.9384 60.8226 21.1463L52.0422 15.9326C50.7834 15.1851 49.2167 15.1851 47.9578 15.9326L39.1774 21.1463C36.1593 22.9384 32.4613 20.2516 33.2331 16.8274L35.4782 6.86574C35.8001 5.43747 35.316 3.94746 34.2161 2.98117L26.5443 -3.75833C23.9073 -6.07494 25.3198 -10.4222 28.8149 -10.7463L38.9828 -11.6894C40.4407 -11.8246 41.7081 -12.7455 42.2872 -14.0902L46.3262 -23.469Z" fill="white"/>
<path d="M96.3262 26.531C97.7145 23.3071 102.285 23.3071 103.674 26.531L107.713 35.9098C108.292 37.2545 109.559 38.1754 111.017 38.3106L121.185 39.2537C124.68 39.5778 126.093 43.9251 123.456 46.2417L115.784 52.9812C114.684 53.9475 114.2 55.4375 114.522 56.8657L116.767 66.8274C117.539 70.2516 113.841 72.9384 110.823 71.1463L102.042 65.9326C100.783 65.1851 99.2167 65.1851 97.9578 65.9326L89.1774 71.1463C86.1593 72.9384 82.4613 70.2516 83.2331 66.8274L85.4782 56.8657C85.8001 55.4375 85.316 53.9475 84.2161 52.9812L76.5443 46.2417C73.9073 43.9251 75.3198 39.5778 78.8149 39.2537L88.9828 38.3106C90.4407 38.1754 91.7081 37.2545 92.2872 35.9098L96.3262 26.531Z" fill="white"/>
</g>
<defs>
<clipPath id="clip0_1_3">
<rect width="100" height="100" fill="white"/>
</clipPath>
</defs>
</svg>
